<svg xmlns="http://www.w3.org/2000/svg" version="1.1" xmlns:xlink="http://www.w3.org/1999/xlink" xmlns:svgjs="http://svgjs.dev/svgjs" viewBox="35.37 35.37 57.27 57.27"><g transform="matrix(0.44782608695652176,0,0,0.44782608695652176,35.33913701790708,12.5)"><svg viewBox="0 0 125 225" data-background-color="#97978d" preserveAspectRatio="xMidYMid meet" height="230" width="128" xmlns="http://www.w3.org/2000/svg" xmlns:xlink="http://www.w3.org/1999/xlink"><g id="tight-bounds" transform="matrix(1,0,0,1,0.000014355645376440407,0)"><svg viewBox="0 0 125 225" height="225" width="125"><g><svg/></g><g><svg viewBox="0 0 125 225" height="225" width="125"><g><path transform="translate(-12.55969,37.44031) scale(1.50118,1.50118)" d="M88.492 50l1.711-2.963c2.946-5.102 1.198-11.626-3.904-14.572l-2.963-1.711v-3.422c0-5.891-4.776-10.667-10.667-10.667h-3.422l-1.711-2.963c-2.946-5.102-9.47-6.85-14.572-3.904l-2.964 1.71-2.963-1.711c-5.102-2.945-11.626-1.197-14.572 3.905l-1.711 2.963h-3.422c-5.891 0-10.667 4.776-10.667 10.667v3.422l-2.963 1.711c-5.102 2.946-6.85 9.47-3.904 14.572l1.71 2.963-1.711 2.963c-2.945 5.102-1.197 11.626 3.905 14.572l2.963 1.711v3.422c0 5.891 4.776 10.667 10.667 10.667h3.422l1.711 2.963c2.946 5.102 9.47 6.85 14.572 3.904l2.963-1.71 2.963 1.711c5.102 2.946 11.626 1.198 14.572-3.904l1.711-2.963h3.422c5.891 0 10.667-4.776 10.667-10.667v-3.422l2.963-1.711c5.102-2.946 6.85-9.47 3.904-14.572zM85.832 33.273c2.252 1.3 3.862 3.399 4.535 5.91 0.673 2.511 0.328 5.135-0.972 7.386l-1.441 2.497-4.618-7.999v-9.236zM73.72 73.72l-15.038 8.682h-17.364l-15.038-8.682-8.682-15.038v-17.364l8.682-15.038 15.038-8.682h17.364l15.038 8.682 8.682 15.038v17.364zM82.401 60.549v8.158l-7.065 4.079zM72.786 75.336l-4.079 7.065h-8.158zM57.065 83.335l-7.065 4.079-7.065-4.079zM39.451 82.401h-8.158l-4.079-7.065zM24.664 72.786l-7.065-4.079v-8.158zM16.665 57.065l-4.079-7.065 4.079-7.065zM17.599 39.451v-8.158l7.065-4.079zM27.214 24.664l4.079-7.065h8.158zM42.935 16.665l7.065-4.079 7.065 4.079zM60.549 17.599h8.158l4.079 7.065zM75.336 27.214l7.065 4.079v8.158zM83.335 42.935l4.079 7.065-4.079 7.065zM72.668 17.599c2.6 0 5.044 1.012 6.883 2.851 1.838 1.838 2.851 4.283 2.851 6.883v2.883l-7.999-4.618-4.618-7.999zM53.43 10.606c2.252-1.3 4.875-1.645 7.386-0.972 2.511 0.673 4.61 2.284 5.91 4.535l1.441 2.497h-9.236l-7.999-4.618zM33.273 14.168c1.3-2.252 3.399-3.862 5.91-4.535 2.511-0.673 5.135-0.328 7.386 0.972l2.497 1.441-7.999 4.618h-9.236zM17.599 27.332c0-2.6 1.012-5.044 2.851-6.883 1.838-1.838 4.283-2.851 6.883-2.851h2.883l-4.618 7.999-7.999 4.618zM10.606 46.57c-1.3-2.252-1.645-4.875-0.972-7.386 0.673-2.511 2.284-4.61 4.535-5.91l2.497-1.441v9.236l-4.618 7.999zM14.168 66.727c-2.252-1.3-3.862-3.399-4.535-5.91-0.673-2.511-0.328-5.135 0.972-7.386l1.441-2.497 4.618 7.999v9.236zM27.332 82.401c-2.6 0-5.044-1.012-6.883-2.851-1.838-1.838-2.851-4.283-2.851-6.883v-2.883l7.999 4.618 4.618 7.999zM46.57 89.394c-2.252 1.3-4.875 1.645-7.386 0.972-2.511-0.673-4.61-2.284-5.91-4.535l-1.441-2.497h9.236l7.999 4.618zM66.727 85.832c-1.3 2.252-3.399 3.862-5.91 4.535-2.511 0.673-5.135 0.328-7.386-0.972l-2.497-1.441 7.999-4.618h9.236zM82.401 72.668c0 2.6-1.012 5.044-2.851 6.883-1.838 1.838-4.283 2.851-6.883 2.851h-2.883l4.618-7.999 7.999-4.618zM90.367 60.816c-0.673 2.511-2.284 4.61-4.535 5.91l-2.497 1.441v-9.236l4.618-7.999 1.441 2.497c1.3 2.253 1.646 4.876 0.973 7.387z" fill="#000000" fill-rule="nonzero" stroke="none" stroke-width="1" stroke-linecap="butt" stroke-linejoin="miter" stroke-miterlimit="10" stroke-dasharray="" stroke-dashoffset="0" font-family="none" font-weight="none" font-size="none" text-anchor="none" style="mix-blend-mode: normal" data-fill-palette-color="tertiary"/></g><g transform="matrix(2,0,0,2,34.17785,84.17785)"><svg viewBox="0 0 28.6443 28.6443" height="28.6443" width="28.6443"><g><svg viewBox="0 0 28.6443 28.6443" height="28.6443" width="28.6443"><g><svg viewBox="0 0 28.6443 28.6443" height="28.6443" width="28.6443"><g id="textblocktransform"><svg viewBox="0 0 28.6443 28.6443" height="28.6443" width="28.6443" id="textblock"><g><svg viewBox="0 0 28.6443 28.6443" height="28.6443" width="28.6443"><g><svg viewBox="0 0 28.6443 28.6443" height="28.6443" width="28.6443"><g><svg xmlns="http://www.w3.org/2000/svg" xmlns:xlink="http://www.w3.org/1999/xlink" version="1.1" x="0" y="0" viewBox="0.5000000000000002 0.5 71 71" enable-background="new 0 0 72 72" xml:space="preserve" height="28.6443" width="28.6443" class="icon-icon-0" data-fill-palette-color="accent" id="icon-0"><g fill="#ffffff" data-fill-palette-color="accent"><g fill="#ffffff" data-fill-palette-color="accent"><g fill="#ffffff" data-fill-palette-color="accent"><path d="M48.4 38.1c-0.7 0-1.4-0.3-1.9-0.9-0.9-1-0.7-2.6 0.2-3.5l3.1-3.1c0.3-0.3 0.3-0.7 0-1l-3.1-3.1c-0.9-0.9-1.1-2.4-0.3-3.4 1-1.2 2.7-1.2 3.7-0.2l5.5 5.5c0.5 0.5 0.7 1.1 0.7 1.8 0 0.7-0.3 1.3-0.7 1.8l-5.5 5.5C49.6 37.9 49 38.1 48.4 38.1z" fill="#000000" data-fill-palette-color="accent"/></g><g fill="#ffffff" data-fill-palette-color="accent"><path d="M23.6 38.1c-0.6 0-1.3-0.2-1.8-0.7L16.4 32c-0.5-0.5-0.7-1.1-0.7-1.8 0-0.7 0.3-1.3 0.7-1.8l5.4-5.4c0.9-0.9 2.4-1.1 3.4-0.3 1.2 1 1.2 2.7 0.2 3.7l-3.2 3.2c-0.3 0.3-0.3 0.7 0 1l3.1 3.1c0.9 0.9 1.1 2.5 0.2 3.5C25 37.8 24.3 38.1 23.6 38.1z" fill="#000000" data-fill-palette-color="accent"/></g></g><g fill="#ffffff" data-fill-palette-color="accent"><path d="M32.7 41.9c-0.3 0-0.6 0-0.8-0.1-1.3-0.5-2-1.9-1.5-3.2l6.6-18.4c0.5-1.3 1.9-2 3.2-1.5 1.3 0.5 2 1.9 1.5 3.2l-6.6 18.4C34.7 41.2 33.7 41.9 32.7 41.9z" fill="#000000" data-fill-palette-color="accent"/></g><g fill="#ffffff" data-fill-palette-color="accent"><path d="M69.8 0.5H2.2c-0.9 0-1.7 0.8-1.7 1.7v67.6c0 0.9 0.8 1.7 1.7 1.7h67.6c0.9 0 1.7-0.8 1.7-1.7V2.2C71.5 1.3 70.7 0.5 69.8 0.5zM25 4.5c1.2 0 2.1 0.9 2.1 2.1 0 1.2-0.9 2.1-2.1 2.1-1.2 0-2.1-0.9-2.1-2.1C22.9 5.4 23.8 4.5 25 4.5zM16.1 4.5c1.2 0 2.1 0.9 2.1 2.1 0 1.2-0.9 2.1-2.1 2.1C15 8.7 14 7.8 14 6.6 14 5.4 15 4.5 16.1 4.5zM7.3 4.5c1.2 0 2.1 0.9 2.1 2.1 0 1.2-0.9 2.1-2.1 2.1S5.2 7.8 5.2 6.6C5.2 5.4 6.1 4.5 7.3 4.5zM5.5 64.8V16.5c0-0.9 0.8-1.7 1.7-1.7h57.6c0.9 0 1.7 0.8 1.7 1.7V46c-0.1 0-0.1-0.1-0.2-0.1-0.4-0.1-0.6-0.5-0.6-0.8v-3.5c0-0.5-0.4-0.9-0.9-0.9H59c-0.5 0-0.9 0.4-0.9 0.9v3.5c0 0.4-0.3 0.7-0.6 0.8-0.8 0.2-1.5 0.6-2.2 0.9-0.3 0.2-0.8 0.1-1-0.1L52 44.5c-0.6-0.6-1.1-0.6-1.5-0.2l-4.1 4.1c-0.4 0.4-0.4 0.9 0 1.3l2.4 2.4c0.3 0.3 0.3 0.7 0.2 1-0.4 0.7-0.7 1.5-0.9 2.2C48 55.7 47.6 56 47.2 56l-3.5 0c-0.5 0-0.9 0.4-0.9 0.9v5.8c0 0.5 0.4 0.9 0.9 0.9h3.5c0.4 0 0.7 0.3 0.8 0.6 0.1 0.4 0.3 0.9 0.5 1.3 0.2 0.5-0.2 1.1-0.7 1.1H7.2C6.3 66.5 5.5 65.7 5.5 64.8zM64.8 66.5h-8.4c-0.3 0-0.6-0.1-0.8-0.3-1.9-1.9-3-4.7-2.6-7.7 0.5-3.9 3.7-7.1 7.6-7.7 2.2-0.3 4.3 0.1 6 1.2v12.8C66.5 65.7 65.7 66.5 64.8 66.5z" fill="#000000" data-fill-palette-color="accent"/></g></g></svg></g></svg></g></svg></g></svg></g></svg></g><g/></svg></g></svg></g></svg></g><defs/></svg><rect width="125" height="225" fill="none" stroke="none" visibility="hidden"/></g></svg></g></svg>
