<svg xmlns="http://www.w3.org/2000/svg" version="1.1" xmlns:xlink="http://www.w3.org/1999/xlink" xmlns:svgjs="http://svgjs.dev/svgjs" viewBox="-0.4 124.6 2000.78 2000.78"><g transform="matrix(1,0,0,1,0.00022954974565436714,0)"><svg viewBox="0 0 320 360" data-background-color="#97978d" preserveAspectRatio="xMidYMid meet" height="2250" width="2000" xmlns="http://www.w3.org/2000/svg" xmlns:xlink="http://www.w3.org/1999/xlink"><g id="tight-bounds" transform="matrix(1,0,0,1,-0.00003672795929787753,0)"><svg viewBox="0 0 320 360" height="360" width="320"><g><svg/></g><g><svg viewBox="0 0 320 360" height="360" width="320"><g><path transform="translate(-32.1528,-12.1528) scale(3.84303,3.84303)" d="M88.492 50l1.711-2.963c2.946-5.102 1.198-11.626-3.904-14.572l-2.963-1.711v-3.422c0-5.891-4.776-10.667-10.667-10.667h-3.422l-1.711-2.963c-2.946-5.102-9.47-6.85-14.572-3.904l-2.964 1.71-2.963-1.711c-5.102-2.945-11.626-1.197-14.572 3.905l-1.711 2.963h-3.422c-5.891 0-10.667 4.776-10.667 10.667v3.422l-2.963 1.711c-5.102 2.946-6.85 9.47-3.904 14.572l1.71 2.963-1.711 2.963c-2.945 5.102-1.197 11.626 3.905 14.572l2.963 1.711v3.422c0 5.891 4.776 10.667 10.667 10.667h3.422l1.711 2.963c2.946 5.102 9.47 6.85 14.572 3.904l2.963-1.71 2.963 1.711c5.102 2.946 11.626 1.198 14.572-3.904l1.711-2.963h3.422c5.891 0 10.667-4.776 10.667-10.667v-3.422l2.963-1.711c5.102-2.946 6.85-9.47 3.904-14.572zM85.832 33.273c2.252 1.3 3.862 3.399 4.535 5.91 0.673 2.511 0.328 5.135-0.972 7.386l-1.441 2.497-4.618-7.999v-9.236zM73.72 73.72l-15.038 8.682h-17.364l-15.038-8.682-8.682-15.038v-17.364l8.682-15.038 15.038-8.682h17.364l15.038 8.682 8.682 15.038v17.364zM82.401 60.549v8.158l-7.065 4.079zM72.786 75.336l-4.079 7.065h-8.158zM57.065 83.335l-7.065 4.079-7.065-4.079zM39.451 82.401h-8.158l-4.079-7.065zM24.664 72.786l-7.065-4.079v-8.158zM16.665 57.065l-4.079-7.065 4.079-7.065zM17.599 39.451v-8.158l7.065-4.079zM27.214 24.664l4.079-7.065h8.158zM42.935 16.665l7.065-4.079 7.065 4.079zM60.549 17.599h8.158l4.079 7.065zM75.336 27.214l7.065 4.079v8.158zM83.335 42.935l4.079 7.065-4.079 7.065zM72.668 17.599c2.6 0 5.044 1.012 6.883 2.851 1.838 1.838 2.851 4.283 2.851 6.883v2.883l-7.999-4.618-4.618-7.999zM53.43 10.606c2.252-1.3 4.875-1.645 7.386-0.972 2.511 0.673 4.61 2.284 5.91 4.535l1.441 2.497h-9.236l-7.999-4.618zM33.273 14.168c1.3-2.252 3.399-3.862 5.91-4.535 2.511-0.673 5.135-0.328 7.386 0.972l2.497 1.441-7.999 4.618h-9.236zM17.599 27.332c0-2.6 1.012-5.044 2.851-6.883 1.838-1.838 4.283-2.851 6.883-2.851h2.883l-4.618 7.999-7.999 4.618zM10.606 46.57c-1.3-2.252-1.645-4.875-0.972-7.386 0.673-2.511 2.284-4.61 4.535-5.91l2.497-1.441v9.236l-4.618 7.999zM14.168 66.727c-2.252-1.3-3.862-3.399-4.535-5.91-0.673-2.511-0.328-5.135 0.972-7.386l1.441-2.497 4.618 7.999v9.236zM27.332 82.401c-2.6 0-5.044-1.012-6.883-2.851-1.838-1.838-2.851-4.283-2.851-6.883v-2.883l7.999 4.618 4.618 7.999zM46.57 89.394c-2.252 1.3-4.875 1.645-7.386 0.972-2.511-0.673-4.61-2.284-5.91-4.535l-1.441-2.497h9.236l7.999 4.618zM66.727 85.832c-1.3 2.252-3.399 3.862-5.91 4.535-2.511 0.673-5.135 0.328-7.386-0.972l-2.497-1.441 7.999-4.618h9.236zM82.401 72.668c0 2.6-1.012 5.044-2.851 6.883-1.838 1.838-4.283 2.851-6.883 2.851h-2.883l4.618-7.999 7.999-4.618zM90.367 60.816c-0.673 2.511-2.284 4.61-4.535 5.91l-2.497 1.441v-9.236l4.618-7.999 1.441 2.497c1.3 2.253 1.646 4.876 0.973 7.387z" fill="#ffffff" fill-rule="nonzero" stroke="none" stroke-width="1" stroke-linecap="butt" stroke-linejoin="miter" stroke-miterlimit="10" stroke-dasharray="" stroke-dashoffset="0" font-family="none" font-weight="none" font-size="none" text-anchor="none" style="mix-blend-mode: normal" data-fill-palette-color="tertiary"/></g><g transform="matrix(1,0,0,1,64,103.75761834258373)"><svg viewBox="0 0 192 152.48476331483255" height="152.48476331483255" width="192"><g><svg viewBox="0 0 192 152.48476331483255" height="152.48476331483255" width="192"><g><svg viewBox="0 0 192 152.48476331483255" height="152.48476331483255" width="192"><g transform="matrix(1,0,0,1,0,94.2417011138756)"><svg viewBox="0 0 192 58.24306220095694" height="58.24306220095694" width="192"><g id="textblocktransform"><svg viewBox="0 0 192 58.24306220095694" height="58.24306220095694" width="192" id="textblock"><g><svg viewBox="0 0 192 58.24306220095694" height="58.24306220095694" width="192"><g transform="matrix(1,0,0,1,0,0)"><svg width="192" viewBox="0.8 -31.65 104.49000000000001 31.7" height="58.24306220095694" data-palette-color="#ffffff"><path d="M28-29.35Q28-28.45 26.45-26.7L26.45-26.7Q24.6-24.6 16.8-13.8L16.8-13.8Q16.9-7.35 17.2-4.95L17.2-4.95Q17.35-3.45 17.35-2.8L17.35-2.8Q17.35-1.15 16.78-0.58 16.2 0 14.8 0L14.8 0Q13.75 0 12.83-0.63 11.9-1.25 11.9-2.15L11.9-2.15Q11.9-5.8 11.75-12.85L11.75-12.85Q11.75-13.15 11.35-13.85 10.95-14.55 10.85-14.75L10.85-14.75Q9.8-16.6 8.22-18.88 6.65-21.15 5.5-22.3L5.5-22.3Q3.3-24.5 2.05-26.28 0.8-28.05 0.8-28.8L0.8-28.8Q0.8-29.85 1.78-30.48 2.75-31.1 3.9-31.1L3.9-31.1Q4.55-31.1 5.28-30.75 6-30.4 6.45-29.75L6.45-29.75Q9.4-25.35 11.7-22.45L11.7-22.45 14.05-19.4Q16.2-21.6 17.82-23.78 19.45-25.95 21.4-28.95L21.4-28.95 22.25-30.25Q23.2-31.55 25.2-31.55L25.2-31.55Q26.15-31.55 27.08-31 28-30.45 28-29.35L28-29.35ZM48.25-13.25Q50-10.3 51.77-8.03 53.55-5.75 56.45-2.45L56.45-2.45Q56.8-2.1 56.8-1.65L56.8-1.65Q56.8-0.95 56.02-0.45 55.25 0.05 54.15 0.05L54.15 0.05Q52.6 0.05 50.8-1.25L50.8-1.25Q49.2-2.4 47.95-4.3 46.7-6.2 45.05-9.25L45.05-9.25Q43.75-11.6 43.5-12L43.5-12Q41.55-11.2 37.4-11L37.4-11Q37.4-9.3 37.7-6.4L37.7-6.4Q38-3.4 38-2.05L38-2.05Q38-1.15 37.12-0.55 36.25 0.05 35.15 0.05L35.15 0.05Q33.85 0.05 33.15-1L33.15-1Q32.45-2.4 32.25-4.35 32.05-6.3 32.05-9L32.05-9Q32.05-11.85 32.4-15.45L32.4-15.45Q32.7-19.45 32.7-21.35L32.7-21.35Q32.7-22.9 32.4-25.5L32.4-25.5Q32.35-25.95 32.25-27.05 32.15-28.15 32.15-29.05L32.15-29.05Q32.15-29.75 32.67-30.28 33.2-30.8 33.8-31L33.8-31Q37.85-31.65 41.7-31.65L41.7-31.65Q48.25-31.65 52.55-29.2 56.85-26.75 56.85-21.75L56.85-21.75Q56.85-20.2 56.17-18.78 55.5-17.35 54.35-16.4L54.35-16.4Q51.3-14.05 48.25-13.25L48.25-13.25ZM51.6-21.9Q51.6-24.3 49.05-25.83 46.5-27.35 41.8-27.35L41.8-27.35Q39.7-27.35 37.65-26.85L37.65-26.85 37.7-24.3Q37.7-22.1 37.55-20L37.55-20Q37.4-17.9 37.4-15.5L37.4-15.5Q38.25-15.7 39.2-15.78 40.15-15.85 40.45-15.9L40.45-15.9Q42.65-16.1 43.85-16.4L43.85-16.4Q46.1-17.1 47.57-17.68 49.05-18.25 50.32-19.33 51.6-20.4 51.6-21.9L51.6-21.9ZM70.3-27.6Q70.15-24.4 70.15-21.45L70.15-21.45Q70.15-18.4 70.55-12.5L70.55-12.5Q70.6-11.6 70.75-8.88 70.9-6.15 70.9-3.9L70.9-3.9Q71.4-3.95 71.97-4.05 72.55-4.15 72.85-4.15L72.85-4.15Q73.95-4.15 74.6-3.6 75.25-3.05 75.25-1.9L75.25-1.9Q75.25-1.15 74.65-0.75 74.05-0.35 72.57-0.18 71.1 0 68.3 0L68.3 0Q65.2 0 63.65-0.2 62.1-0.4 61.5-0.98 60.9-1.55 60.9-2.7L60.9-2.7Q60.9-3.55 61.45-3.85 62-4.15 63-4.15L63-4.15 64.05-4.1 65.7-4 65.45-9.9Q65.15-14.7 65.15-18.7L65.15-18.7Q65.15-20.85 65.3-24.6L65.3-24.6 65.4-27.35Q63.7-27.25 62.75-27.25L62.75-27.25Q61.65-27.25 61.27-27.65 60.9-28.05 60.9-29.3L60.9-29.3Q60.9-30.7 62.82-31.1 64.75-31.5 68.7-31.5L68.7-31.5Q71.75-31.5 73.27-31.3 74.8-31.1 74.8-30.4L74.8-30.4Q74.8-28.7 74.07-28.18 73.35-27.65 71.3-27.65L71.3-27.65 70.3-27.6ZM105.29-29.35Q105.29-28.45 103.74-26.7L103.74-26.7Q101.89-24.6 94.09-13.8L94.09-13.8Q94.19-7.35 94.49-4.95L94.49-4.95Q94.64-3.45 94.64-2.8L94.64-2.8Q94.64-1.15 94.07-0.58 93.49 0 92.09 0L92.09 0Q91.04 0 90.12-0.63 89.19-1.25 89.19-2.15L89.19-2.15Q89.19-5.8 89.04-12.85L89.04-12.85Q89.04-13.15 88.64-13.85 88.24-14.55 88.14-14.75L88.14-14.75Q87.09-16.6 85.52-18.88 83.94-21.15 82.79-22.3L82.79-22.3Q80.59-24.5 79.34-26.28 78.09-28.05 78.09-28.8L78.09-28.8Q78.09-29.85 79.07-30.48 80.04-31.1 81.19-31.1L81.19-31.1Q81.84-31.1 82.57-30.75 83.29-30.4 83.74-29.75L83.74-29.75Q86.69-25.35 88.99-22.45L88.99-22.45 91.34-19.4Q93.49-21.6 95.12-23.78 96.74-25.95 98.69-28.95L98.69-28.95 99.54-30.25Q100.49-31.55 102.49-31.55L102.49-31.55Q103.44-31.55 104.37-31 105.29-30.45 105.29-29.35L105.29-29.35Z" opacity="1" transform="matrix(1,0,0,1,0,0)" fill="#ffffff" class="wordmark-text-0" data-fill-palette-color="primary" id="text-0"/></svg></g></svg></g></svg></g></svg></g><g transform="matrix(1,0,0,1,55.75404401913875,0)"><svg viewBox="0 0 80.4919119617225 80.4919119617225" height="80.4919119617225" width="80.4919119617225"><g><svg xmlns="http://www.w3.org/2000/svg" xmlns:xlink="http://www.w3.org/1999/xlink" version="1.1" x="0" y="0" viewBox="0.5000000000000002 0.5 71 71" enable-background="new 0 0 72 72" xml:space="preserve" height="80.4919119617225" width="80.4919119617225" class="icon-icon-0" data-fill-palette-color="accent" id="icon-0"><g fill="#ffffff" data-fill-palette-color="accent"><g fill="#ffffff" data-fill-palette-color="accent"><g fill="#ffffff" data-fill-palette-color="accent"><path d="M48.4 38.1c-0.7 0-1.4-0.3-1.9-0.9-0.9-1-0.7-2.6 0.2-3.5l3.1-3.1c0.3-0.3 0.3-0.7 0-1l-3.1-3.1c-0.9-0.9-1.1-2.4-0.3-3.4 1-1.2 2.7-1.2 3.7-0.2l5.5 5.5c0.5 0.5 0.7 1.1 0.7 1.8 0 0.7-0.3 1.3-0.7 1.8l-5.5 5.5C49.6 37.9 49 38.1 48.4 38.1z" fill="#ffffff" data-fill-palette-color="accent"/></g><g fill="#ffffff" data-fill-palette-color="accent"><path d="M23.6 38.1c-0.6 0-1.3-0.2-1.8-0.7L16.4 32c-0.5-0.5-0.7-1.1-0.7-1.8 0-0.7 0.3-1.3 0.7-1.8l5.4-5.4c0.9-0.9 2.4-1.1 3.4-0.3 1.2 1 1.2 2.7 0.2 3.7l-3.2 3.2c-0.3 0.3-0.3 0.7 0 1l3.1 3.1c0.9 0.9 1.1 2.5 0.2 3.5C25 37.8 24.3 38.1 23.6 38.1z" fill="#ffffff" data-fill-palette-color="accent"/></g></g><g fill="#ffffff" data-fill-palette-color="accent"><path d="M32.7 41.9c-0.3 0-0.6 0-0.8-0.1-1.3-0.5-2-1.9-1.5-3.2l6.6-18.4c0.5-1.3 1.9-2 3.2-1.5 1.3 0.5 2 1.9 1.5 3.2l-6.6 18.4C34.7 41.2 33.7 41.9 32.7 41.9z" fill="#ffffff" data-fill-palette-color="accent"/></g><g fill="#ffffff" data-fill-palette-color="accent"><path d="M69.8 0.5H2.2c-0.9 0-1.7 0.8-1.7 1.7v67.6c0 0.9 0.8 1.7 1.7 1.7h67.6c0.9 0 1.7-0.8 1.7-1.7V2.2C71.5 1.3 70.7 0.5 69.8 0.5zM25 4.5c1.2 0 2.1 0.9 2.1 2.1 0 1.2-0.9 2.1-2.1 2.1-1.2 0-2.1-0.9-2.1-2.1C22.9 5.4 23.8 4.5 25 4.5zM16.1 4.5c1.2 0 2.1 0.9 2.1 2.1 0 1.2-0.9 2.1-2.1 2.1C15 8.7 14 7.8 14 6.6 14 5.4 15 4.5 16.1 4.5zM7.3 4.5c1.2 0 2.1 0.9 2.1 2.1 0 1.2-0.9 2.1-2.1 2.1S5.2 7.8 5.2 6.6C5.2 5.4 6.1 4.5 7.3 4.5zM5.5 64.8V16.5c0-0.9 0.8-1.7 1.7-1.7h57.6c0.9 0 1.7 0.8 1.7 1.7V46c-0.1 0-0.1-0.1-0.2-0.1-0.4-0.1-0.6-0.5-0.6-0.8v-3.5c0-0.5-0.4-0.9-0.9-0.9H59c-0.5 0-0.9 0.4-0.9 0.9v3.5c0 0.4-0.3 0.7-0.6 0.8-0.8 0.2-1.5 0.6-2.2 0.9-0.3 0.2-0.8 0.1-1-0.1L52 44.5c-0.6-0.6-1.1-0.6-1.5-0.2l-4.1 4.1c-0.4 0.4-0.4 0.9 0 1.3l2.4 2.4c0.3 0.3 0.3 0.7 0.2 1-0.4 0.7-0.7 1.5-0.9 2.2C48 55.7 47.6 56 47.2 56l-3.5 0c-0.5 0-0.9 0.4-0.9 0.9v5.8c0 0.5 0.4 0.9 0.9 0.9h3.5c0.4 0 0.7 0.3 0.8 0.6 0.1 0.4 0.3 0.9 0.5 1.3 0.2 0.5-0.2 1.1-0.7 1.1H7.2C6.3 66.5 5.5 65.7 5.5 64.8zM64.8 66.5h-8.4c-0.3 0-0.6-0.1-0.8-0.3-1.9-1.9-3-4.7-2.6-7.7 0.5-3.9 3.7-7.1 7.6-7.7 2.2-0.3 4.3 0.1 6 1.2v12.8C66.5 65.7 65.7 66.5 64.8 66.5z" fill="#ffffff" data-fill-palette-color="accent"/></g></g></svg></g></svg></g><g/></svg></g></svg></g></svg></g></svg></g><defs/></svg><rect width="320" height="360" fill="none" stroke="none" visibility="hidden"/></g></svg></g></svg>